<?xml version="1.0" encoding="UTF-8" standalone="no"?>
<!-- Created with Inkscape (http://www.inkscape.org/) -->

<svg
   xmlns:dc="http://purl.org/dc/elements/1.1/"
   xmlns:cc="http://creativecommons.org/ns#"
   xmlns:rdf="http://www.w3.org/1999/02/22-rdf-syntax-ns#"
   xmlns:svg="http://www.w3.org/2000/svg"
   xmlns="http://www.w3.org/2000/svg"
   xmlns:sodipodi="http://sodipodi.sourceforge.net/DTD/sodipodi-0.dtd"
   xmlns:inkscape="http://www.inkscape.org/namespaces/inkscape"
   width="744.7326"
   height="227.0956"
   id="svg3035"
   version="1.1"
   inkscape:version="0.48.5 r10040"
   sodipodi:docname="新建文档 3">
  <defs
     id="defs3037" />
  <sodipodi:namedview
     id="base"
     pagecolor="#ffffff"
     bordercolor="#666666"
     borderopacity="1.0"
     inkscape:pageopacity="0.0"
     inkscape:pageshadow="2"
     inkscape:zoom="1.6193732"
     inkscape:cx="372.3663"
     inkscape:cy="113.5478"
     inkscape:document-units="px"
     inkscape:current-layer="layer1"
     showgrid="false"
     fit-margin-top="10"
     fit-margin-left="10"
     fit-margin-right="10"
     fit-margin-bottom="10" />
  <metadata
     id="metadata3040">
    <rdf:RDF>
      <cc:Work
         rdf:about="">
        <dc:format>image/svg+xml</dc:format>
        <dc:type
           rdf:resource="http://purl.org/dc/dcmitype/StillImage" />
        <dc:title></dc:title>
      </cc:Work>
    </rdf:RDF>
  </metadata>
  <g
     inkscape:label="Layer 1"
     inkscape:groupmode="layer"
     id="layer1"
     transform="translate(1.6520266,-2.0885936)">
    <path
       style="fill:#000000"
       d="m 692.79944,136.99713 c -7.40385,-1.91854 -34.28101,-25.61424 -34.28101,-30.22316 0,-4.55369 7.35591,-4.5226 27.09399,0.11442 21.73078,5.10529 47.46817,12.865 47.46817,14.31146 0,0.47738 -2.59522,3.4712 -5.76717,6.65295 -7.28753,7.31007 -24.24952,11.80401 -34.51398,9.14423 z M 61.268806,205.98626 C 52.332274,198.40519 42.19295,190.7401 38.736968,188.95277 12.592106,175.43135 15.549446,160.78321 47.237235,146.84941 60.309217,141.10139 62.021113,139.491 62.021113,132.942 c 0,-7.11259 -8.875572,-18.58742 -14.377051,-18.58742 -1.361583,0 -5.521354,3.471 -9.243935,7.71333 -8.738788,9.95891 -12.652325,9.71858 -22.392638,-1.37501 -9.6812021,-11.0263 -10.1769891,-19.88843 -1.533075,-27.404215 3.545637,-3.082888 8.298615,-8.431798 10.562193,-11.886443 4.010031,-6.120063 3.833036,-6.52455 -6.8997,-15.768253 C 5.2677356,54.550246 5.639158,48.66922 19.371091,46.093097 c 4.03497,-0.756986 24.051852,0.342677 41.076992,-2.112758 18.941592,-2.731855 34.779085,-9.065499 33.359447,-10.485137 20.00408,-9.310629 17.1529,-5.149983 26.93178,12.867527 -13.19098,0.338615 -15.9731,1.415344 -25.202992,9.754017 -11.703561,10.573455 -12.525801,13.197117 -5.340965,17.042314 4.064332,2.175158 5.567865,1.697215 7.803804,-2.480657 1.530916,-2.860539 5.388613,-5.174898 8.625793,-5.174898 7.23088,0 19.67389,12.519554 19.67389,19.794893 0,6.04388 -13.06303,21.284622 -18.38654,21.451692 -5.01665,0.15735 -15.897013,18.05823 -12.836339,21.11891 1.358291,1.35829 8.649849,2.93914 16.203459,3.51301 13.48941,1.02484 20.16164,5.30759 20.16164,12.94129 0,4.95674 -10.08641,9.52866 -24.42554,11.07143 l -12.855543,1.38315 -1.890511,26.45227 c -5.123243,38.34925 -3.214426,46.16316 -31.00066,22.75611 z m 3.323416,-29.92506 c 0,-12.34102 -0.28583,-12.85555 -7.14123,-12.85555 -7.333857,0 -18.569862,6.22281 -18.569862,10.28449 0,2.29035 20.176008,15.35677 23.78276,15.40228 1.060583,0.0129 1.928332,-5.76067 1.928332,-12.83122 z M 544.7758,208.67754 c 6.70111,-2.65014 25.92691,-7.97478 42.72402,-11.8325 33.30933,-7.65 40.23436,-11.83983 45.39028,-27.4624 6.051,-18.33468 -5.15757,-29.32062 -16.79497,-16.46142 -6.32403,6.98796 -10.68188,6.45968 -12.68922,-1.53827 -1.23987,-4.94003 0.0273,-8.91442 4.86348,-15.25509 13.37666,-17.53774 6.38368,-18.92956 -11.42295,-2.27355 -13.98951,13.08556 -21.41189,14.13524 -22.68024,3.20746 -0.5792,-4.99029 1.02767,-8.08424 5.9976,-11.54801 22.22564,-15.49006 28.81162,-24.32794 20.50467,-27.5156 -2.12116,-0.813987 -3.85666,-3.111582 -3.85666,-5.105811 0,-1.99423 -3.96008,-10.202213 -8.80019,-18.240014 -9.68053,-16.076118 -13.8771,-33.078091 -9.4741,-38.383395 1.52716,-1.840091 12.04356,-7.694327 23.36981,-13.009427 35.79949,-16.7996525 64.76514,-14.4535668 70.45331,5.706397 2.12114,7.517769 0.84268,11.514815 -11.51307,35.995528 -13.3997,26.549145 -14.20849,27.547944 -22.50793,27.795825 -11.52255,0.344142 -14.56173,5.72388 -7.48756,13.253987 4.99685,5.31891 5.21367,6.72829 2.28212,14.83533 -3.13269,8.6633 -2.93754,9.24265 5.93026,17.60605 10.22914,9.64732 11.30332,16.44104 6.43459,40.69591 -4.1373,20.61098 -7.68841,27.92546 -15.02158,30.94098 -3.74209,1.53883 -26.68569,2.88818 -52.27725,3.07448 l -45.60824,0.33203 z M 607.09624,73.065086 c 0,-1.497542 -1.157,-2.007779 -2.57111,-1.133808 -1.41411,0.873972 -2.5711,2.09926 -2.5711,2.722856 0,0.623597 1.15699,1.133808 2.5711,1.133808 1.41411,0 2.57111,-1.225288 2.57111,-2.722856 z m 33.48806,-9.014514 c 3.37119,-8.866856 3.15976,-11.402612 -0.9507,-11.402612 -5.24709,0 -12.79304,9.569385 -11.07546,14.045352 2.36486,6.162666 9.25394,4.648797 12.02616,-2.64274 z M 606.5398,50.052528 c 9.56535,-5.831944 12.8473,-11.853251 8.7137,-15.986823 -3.73402,-3.734047 -26.15502,7.967122 -26.15502,13.64989 0,8.886088 5.49258,9.622016 17.44132,2.336933 z m 44.69843,-11.469512 c 4.92905,-10.818071 -5.93224,-17.86543 -19.50616,-12.65662 -5.48047,2.103065 -5.17716,11.113234 0.43249,12.846676 2.47469,0.764699 6.23494,2.395837 8.3561,3.624775 6.07569,3.520003 7.62722,2.967754 10.71757,-3.814831 z M 215.01381,171.97419 c -3.48974,-3.76549 -7.40508,-12.60481 -9.01213,-20.34598 -4.56932,-22.01032 -15.49083,-21.14542 -19.32183,1.53014 -1.40827,8.33556 -2.72229,10.0473 -7.71266,10.0473 -3.49913,0 -8.3407,-2.95646 -11.57493,-7.0681 -4.80437,-6.10778 -5.34798,-9.16449 -4.00082,-22.49721 1.03055,-10.19936 0.32049,-19.43087 -2.09487,-27.23545 -3.20414,-10.353317 -3.17323,-12.798647 0.2512,-19.8693 9.13909,-18.870116 38.31318,-36.999675 52.36372,-32.540215 9.69226,3.076204 12.96467,11.774189 10.10428,26.856958 -1.42221,7.499385 -2.58586,18.629666 -2.58586,24.733997 0,10.5337 0.55631,11.36147 10.92721,16.25969 21.44361,10.12788 31.27419,17.31367 34.49942,25.21785 2.88954,7.08145 2.64168,8.73007 -2.24679,14.94475 -6.71186,8.53277 -23.49875,16.49099 -34.94651,16.56723 -5.86781,0.0391 -10.37905,-1.9939 -14.64941,-6.60166 z m 31.48437,-6.12819 c 6.49054,-2.94615 10.92722,-6.69715 10.92722,-9.23843 0,-4.70482 -14.33835,-18.85672 -24.7516,-24.42973 -5.9218,-3.16925 -6.9974,-3.02411 -10.21681,1.37871 -4.80389,6.5697 -4.57434,24.54021 0.40425,31.64812 4.87501,6.96006 9.44343,7.08402 23.63694,0.64133 z m -41.4522,-89.301226 c -4.13674,-4.136735 -6.67954,4.171187 -4.92854,16.102676 l 1.86498,12.70825 2.38157,-13.555687 c 1.30985,-7.455625 1.61676,-14.320487 0.68199,-15.255239 z m 269.8218,98.047216 c -2.22219,-2.22216 -4.04765,-8.2964 -4.05657,-13.49832 -0.0154,-9.70525 -0.30398,-10.00848 -21.71345,-22.91843 -2.89682,-1.74679 -9.65827,-3.19304 -15.02546,-3.21389 -12.54463,-0.0489 -23.09314,-9.68681 -21.90362,-20.01315 0.71837,-6.23615 2.10276,-7.17836 12.37881,-8.42491 17.64252,-2.14014 22.18523,-5.75347 25.7111,-20.450911 3.31408,-13.814698 9.41277,-19.436968 18.09487,-16.681382 5.7401,1.821836 6.90631,8.968054 1.46353,8.968054 -4.48461,0 -6.88834,5.824205 -4.19937,10.175036 1.60753,2.601037 3.93837,2.650377 11.24781,0.238085 7.58505,-2.503309 9.51372,-4.60825 10.87607,-11.87022 1.83809,-9.797854 6.82588,-11.408165 14.32236,-4.62396 4.38277,3.966373 4.93268,3.531445 9.75274,-7.713327 7.11423,-16.596793 16.05948,-15.280539 19.69521,2.898103 0.86867,4.343297 4.92503,11.102229 9.01415,15.019854 10.02326,9.602887 9.44453,15.039806 -2.20689,20.733038 -7.86846,3.84473 -10.54455,7.23862 -14.55103,18.45396 -4.6134,12.91416 -4.65214,14.17828 -0.64278,20.96557 6.48714,10.9819 5.26116,14.82043 -6.66061,20.85398 -6.00997,3.04162 -13.99833,7.69314 -17.75189,10.33668 -8.32909,5.86599 -18.42089,6.19026 -23.84498,0.76617 z m 19.94021,-29.88266 8.15833,-8.21192 -6.28566,-1.51212 c -4.35634,-1.04799 -6.94377,-4.05174 -8.42964,-9.78587 -1.48006,-5.71178 -3.67738,-8.27373 -7.09614,-8.27373 -8.63319,0 -10.01048,22.74987 -1.98461,32.78164 3.8997,4.87436 6.72775,3.97049 15.63772,-4.998 z m 13.23453,-19.94263 c 4.87919,-9.4353 5.02312,-15.55434 0.36589,-15.55434 -3.72572,0 -6.63297,7.53906 -6.69255,17.35499 -0.0471,7.76197 1.62821,7.28516 6.32666,-1.80065 z m 11.63601,-50.416059 c 0,-2.037707 -1.03322,-3.704917 -2.29602,-3.704917 -2.83789,0 -5.60242,6.67118 -3.59598,8.677622 2.25054,2.250543 5.892,-0.822755 5.892,-4.972705 z M 352.48774,161.46774 c -6.67738,-5.61862 -9.02928,-6.34763 -12.82701,-3.97591 -6.67097,4.16609 -30.72871,-0.0316 -35.19614,-6.14115 -5.30376,-7.25333 -11.41336,-29.94152 -8.77363,-32.58125 1.34166,-1.34166 3.00799,-1.13298 4.01929,0.50335 2.8468,4.60624 9.91486,3.38766 8.08032,-1.39308 -0.88394,-2.30351 -0.3064,-7.79926 1.28345,-12.21277 2.63397,-7.312106 2.05982,-9.257227 -6.46693,-21.908575 -5.14664,-7.63622 -8.95741,-15.084415 -8.46839,-16.551515 2.15333,-6.459964 8.27589,-3.926881 20.06075,8.299694 10.24129,10.62516 14.29567,13.136954 21.20481,13.136954 11.58663,0 19.72329,-8.852329 19.72329,-21.45804 0,-10.515785 5.18022,-14.698311 11.60272,-9.368093 2.50601,2.079795 3.82393,7.879164 3.82393,16.826598 0,11.419735 0.84574,13.92145 5.17042,15.294037 7.97631,2.531591 12.82735,14.73032 12.82735,32.25644 0,18.23963 -4.90368,30.47662 -15.93106,39.75555 -9.46173,7.96154 -10.11698,7.94583 -20.13317,-0.48224 z m 16.7853,-17.19129 c 2.18879,-3.34048 4.68518,-13.62945 5.54756,-22.8643 1.37855,-14.76264 0.98268,-17.09783 -3.27758,-19.33364 -5.83215,-3.060751 -13.42689,-0.50911 -19.89586,6.68452 -4.69919,5.22563 -4.64059,5.35223 4.18556,9.04002 11.31286,4.72681 13.27305,7.91712 8.0646,13.12554 -2.97408,2.97411 -6.58554,3.67296 -12.87918,2.49226 -7.64192,-1.43363 -8.74614,-0.97384 -8.74614,3.64179 0,6.27531 9.09013,13.28747 17.22502,13.28747 3.25554,0 7.54088,-2.66239 9.77602,-6.07366 z M 326.84535,134.833 c 0,-1.36436 -1.44625,-2.46294 -3.21389,-2.44129 -5.43201,0.0666 -10.39759,4.37078 -8.52948,7.39345 2.03992,3.30066 11.74337,-0.79128 11.74337,-4.95216 z m 1.29409,-23.06336 c 1.78509,-2.88833 -1.45988,-3.31889 -7.51158,-0.99664 -2.23684,0.85834 -4.06695,3.21306 -4.06695,5.23267 0,2.84025 1.13237,3.06602 4.99903,0.99666 2.74947,-1.47147 5.71023,-3.82617 6.5795,-5.23269 z"
       id="path2989"
       inkscape:connector-curvature="0"
       sodipodi:nodetypes="sssssscsssssssssssccsssssssssscccssscsssssssssssssssssssssssscssssssssssssssssssscssssssssssssssccsssssssscssscssssssssssssssssssssscssssssssssssssssssssssssssssssssssssssssssssssssss" />
    <path
       style="color:#000000;fill:#000000;fill-opacity:1;fill-rule:nonzero;stroke:none;stroke-width:2.30932212;marker:none;visibility:visible;display:inline;overflow:visible;enable-background:accumulate"
       d="m 692.42483,136.31833 c -5.25725,-1.87483 -17.45226,-11.48412 -26.6162,-20.97272 -7.08904,-7.3402 -7.86654,-8.71266 -5.85735,-10.33961 2.76237,-2.23684 13.32791,-0.90817 33.85351,4.25724 16.26314,4.09275 35.66833,10.02735 37.73928,11.54169 1.02297,0.74801 0.8251,1.08372 -2.93299,4.9764 -6.9674,7.217 -17.52162,11.42588 -28.51843,11.37279 -2.98231,-0.0154 -6.41317,-0.38836 -7.66782,-0.83579 l 0,0 z"
       id="path2997"
       inkscape:connector-curvature="0" />
  </g>
</svg>
