<?xml version="1.0" encoding="UTF-8" standalone="no"?>
<!-- Created with Inkscape (http://www.inkscape.org/) -->

<svg
   xmlns:dc="http://purl.org/dc/elements/1.1/"
   xmlns:cc="http://creativecommons.org/ns#"
   xmlns:rdf="http://www.w3.org/1999/02/22-rdf-syntax-ns#"
   xmlns:svg="http://www.w3.org/2000/svg"
   xmlns="http://www.w3.org/2000/svg"
   xmlns:xlink="http://www.w3.org/1999/xlink"
   xmlns:sodipodi="http://sodipodi.sourceforge.net/DTD/sodipodi-0.dtd"
   xmlns:inkscape="http://www.inkscape.org/namespaces/inkscape"
   width="1000"
   height="600"
   id="svg2"
   version="1.1"
   inkscape:version="0.48.5 r10040"
   sodipodi:docname="plain-logo.svg"
   inkscape:export-filename=".\plain-logo.png"
   inkscape:export-xdpi="90"
   inkscape:export-ydpi="90">
  <defs
     id="defs4">
    <linearGradient
       id="linearGradient3224">
      <stop
         id="stop3226"
         style="stop-color:#42394b;stop-opacity:1"
         offset="0" />
      <stop
         id="stop3228"
         style="stop-color:#000000;stop-opacity:1"
         offset="1" />
    </linearGradient>
    <linearGradient
       id="linearGradient3465">
      <stop
         id="stop3467"
         style="stop-color:#919191;stop-opacity:1"
         offset="0" />
      <stop
         id="stop3469"
         style="stop-color:#fdfdfd;stop-opacity:1"
         offset="1" />
    </linearGradient>
    <linearGradient
       id="linearGradient3187">
      <stop
         id="stop3189"
         style="stop-color:#b4b4b4;stop-opacity:1"
         offset="0" />
      <stop
         id="stop3191"
         style="stop-color:#e6e6e6;stop-opacity:1"
         offset="1" />
    </linearGradient>
    <linearGradient
       x1="45.447727"
       y1="92.539597"
       x2="45.447727"
       y2="7.0165396"
       id="ButtonShadow"
       gradientUnits="userSpaceOnUse"
       gradientTransform="scale(1.0058652,0.994169)">
      <stop
         id="stop3750"
         style="stop-color:#000000;stop-opacity:1"
         offset="0" />
      <stop
         id="stop3752"
         style="stop-color:#000000;stop-opacity:0.58823532"
         offset="1" />
    </linearGradient>
    <linearGradient
       id="linearGradient3737">
      <stop
         id="stop3739"
         style="stop-color:#ffffff;stop-opacity:1"
         offset="0" />
      <stop
         id="stop3741"
         style="stop-color:#ffffff;stop-opacity:0"
         offset="1" />
    </linearGradient>
    <filter
       color-interpolation-filters="sRGB"
       id="filter3174">
      <feGaussianBlur
         id="feGaussianBlur3176"
         stdDeviation="1.71" />
    </filter>
    <linearGradient
       x1="36.357143"
       y1="6"
       x2="36.357143"
       y2="63.893143"
       id="linearGradient3188"
       xlink:href="#linearGradient3737"
       gradientUnits="userSpaceOnUse" />
    <linearGradient
       x1="48"
       y1="90"
       x2="48"
       y2="5.9877172"
       id="linearGradient3427"
       xlink:href="#linearGradient3187"
       gradientUnits="userSpaceOnUse" />
    <radialGradient
       cx="47.098362"
       cy="78.286942"
       r="38.957481"
       fx="47.098362"
       fy="78.286942"
       id="radialGradient3205"
       xlink:href="#linearGradient3224"
       gradientUnits="userSpaceOnUse"
       gradientTransform="matrix(1.3830053,-1.03501e-8,0,1.3123934,-18.038924,-24.218731)" />
    <linearGradient
       x1="43.17857"
       y1="13"
       x2="43.17857"
       y2="83.294571"
       id="linearGradient3279"
       xlink:href="#linearGradient3465"
       gradientUnits="userSpaceOnUse"
       gradientTransform="matrix(1.0294118,0,0,1.0294118,-1.4117647,-1.411765)" />
    <linearGradient
       id="linearGradient3737-7">
      <stop
         id="stop3739-2"
         style="stop-color:#ffffff;stop-opacity:1"
         offset="0" />
      <stop
         id="stop3741-7"
         style="stop-color:#ffffff;stop-opacity:0"
         offset="1" />
    </linearGradient>
    <radialGradient
       cx="48"
       cy="90.171875"
       r="42"
       fx="48"
       fy="90.171875"
       id="radialGradient2874"
       xlink:href="#linearGradient3737-7"
       gradientUnits="userSpaceOnUse"
       gradientTransform="matrix(1.1573129,0,0,0.99590774,-7.551021,0.1971319)" />
    <linearGradient
       id="linearGradient3737-4">
      <stop
         id="stop3739-8"
         style="stop-color:#ffffff;stop-opacity:1"
         offset="0" />
      <stop
         id="stop3741-71"
         style="stop-color:#ffffff;stop-opacity:0"
         offset="1" />
    </linearGradient>
    <clipPath
       id="clipPath3613">
      <rect
         width="84"
         height="84"
         rx="6"
         ry="6"
         x="6"
         y="6"
         id="rect3615"
         style="fill:#ffffff;fill-opacity:1;fill-rule:nonzero;stroke:none" />
    </clipPath>
    <filter
       x="-0.192"
       y="-0.192"
       width="1.3839999"
       height="1.3839999"
       color-interpolation-filters="sRGB"
       id="filter3794">
      <feGaussianBlur
         id="feGaussianBlur3796"
         stdDeviation="5.28" />
    </filter>
    <linearGradient
       x1="48"
       y1="20.220806"
       x2="48"
       y2="138.66119"
       id="linearGradient2908"
       xlink:href="#linearGradient3737-4"
       gradientUnits="userSpaceOnUse" />
    <linearGradient
       x1="45.447727"
       y1="92.539597"
       x2="45.447727"
       y2="7.0165396"
       id="ButtonShadow-0"
       gradientUnits="userSpaceOnUse"
       gradientTransform="matrix(1.0058652,0,0,0.994169,100,0)">
      <stop
         id="stop3750-8"
         style="stop-color:#000000;stop-opacity:1"
         offset="0" />
      <stop
         id="stop3752-5"
         style="stop-color:#000000;stop-opacity:0.58823532"
         offset="1" />
    </linearGradient>
    <linearGradient
       x1="32.251034"
       y1="6.1317081"
       x2="32.251034"
       y2="90.238609"
       id="linearGradient3780"
       xlink:href="#ButtonShadow-0"
       gradientUnits="userSpaceOnUse"
       gradientTransform="matrix(1.0238095,0,0,1.0119048,-1.1428571,-98.071429)" />
    <linearGradient
       x1="32.251034"
       y1="6.1317081"
       x2="32.251034"
       y2="90.238609"
       id="linearGradient3772"
       xlink:href="#ButtonShadow-0"
       gradientUnits="userSpaceOnUse"
       gradientTransform="matrix(1.0238095,0,0,1.0119048,-1.1428571,-98.071429)" />
    <linearGradient
       x1="32.251034"
       y1="6.1317081"
       x2="32.251034"
       y2="90.238609"
       id="linearGradient3725"
       xlink:href="#ButtonShadow-0"
       gradientUnits="userSpaceOnUse"
       gradientTransform="matrix(1.0238095,0,0,1.0119048,-1.1428571,-98.071429)" />
    <linearGradient
       x1="32.251034"
       y1="6.1317081"
       x2="32.251034"
       y2="90.238609"
       id="linearGradient3721"
       xlink:href="#ButtonShadow-0"
       gradientUnits="userSpaceOnUse"
       gradientTransform="translate(0,-97)" />
    <linearGradient
       x1="32.251034"
       y1="6.1317081"
       x2="32.251034"
       y2="90.238609"
       id="linearGradient3224-3"
       xlink:href="#ButtonShadow-0"
       gradientUnits="userSpaceOnUse"
       gradientTransform="matrix(1.0238095,0,0,1.0119048,-1.1428571,-98.071429)" />
  </defs>
  <sodipodi:namedview
     id="base"
     pagecolor="#ffffff"
     bordercolor="#666666"
     borderopacity="1.0"
     inkscape:pageopacity="0.0"
     inkscape:pageshadow="2"
     inkscape:zoom="0.35"
     inkscape:cx="375"
     inkscape:cy="520"
     inkscape:document-units="px"
     inkscape:current-layer="layer1-9"
     showgrid="false" />
  <metadata
     id="metadata7">
    <rdf:RDF>
      <cc:Work
         rdf:about="">
        <dc:format>image/svg+xml</dc:format>
        <dc:type
           rdf:resource="http://purl.org/dc/dcmitype/StillImage" />
        <dc:title></dc:title>
      </cc:Work>
    </rdf:RDF>
  </metadata>
  <g
     inkscape:label="Layer 1"
     inkscape:groupmode="layer"
     id="layer1"
     transform="translate(0,-452.36218)">
    <g
       transform="translate(3.9328457,153.53385)"
       id="layer1-9"
       inkscape:label="Layer 1">
      <g
         transform="matrix(4.2131083,-1.184792,1.184792,4.2131083,-475.46971,-916.1126)"
         style="font-size:40px;font-style:normal;font-variant:normal;font-weight:200;font-stretch:normal;text-align:start;line-height:100%;letter-spacing:0px;word-spacing:0px;writing-mode:lr-tb;text-anchor:start;fill:#000000;fill-opacity:1;stroke:none;font-family:Source Han Sans CN;-inkscape-font-specification:Source Han Sans CN Ultra-Light"
         id="flowRoot2985">
        <path
           d="m 128.15611,388.9882 c 2.99495,-0.0725 5.35491,-0.8075 7.07991,-2.20497 1.72495,-1.39749 2.60494,-3.02247 2.63996,-4.87494 0.008,-1.61415 -0.53834,-2.8058 -1.63998,-3.57495 -1.10167,-0.76916 -2.80831,-1.15082 -5.11993,-1.14499 l -4.67994,0 c -1.58915,-0.0217 -2.68081,-0.30833 -3.27496,-0.85999 -0.59416,-0.55165 -0.87582,-1.23831 -0.84499,-2.05997 0.0167,-0.71582 0.20333,-1.33414 0.56,-1.85498 0.35665,-0.52082 0.78331,-0.96914 1.27998,-1.34498 0.49332,0.3025 1.05664,0.5375 1.68998,0.70499 0.63331,0.16751 1.25664,0.25251 1.86997,0.255 2.08663,-0.0492 3.80327,-0.77082 5.14994,-2.16497 1.34663,-1.39414 2.04329,-3.16578 2.08997,-5.31493 -0.0109,-1.20581 -0.23918,-2.28413 -0.68499,-3.23496 -0.44585,-0.9508 -1.04417,-1.73913 -1.79498,-2.36497 l 5.03994,0 0,-1.31999 -7.03991,0 c -0.30251,-0.12664 -0.68751,-0.2433 -1.15499,-0.34999 -0.4675,-0.10665 -1.00249,-0.16331 -1.60498,-0.17 -2.06914,0.0425 -3.78079,0.74751 -5.13493,2.11497 -1.35415,1.3675 -2.05581,3.14248 -2.10497,5.32494 0.0292,1.28916 0.31082,2.43081 0.84499,3.42495 0.53415,0.99416 1.14581,1.78582 1.83497,2.37497 l 0,0.16 c -0.49916,0.32167 -1.00082,0.80833 -1.50498,1.45998 -0.50416,0.65166 -0.77583,1.45832 -0.81499,2.41997 0.0108,0.79999 0.18916,1.47998 0.535,2.03997 0.34582,0.56 0.79415,0.99999 1.34498,1.31999 l 0,0.15999 c -0.99083,0.71416 -1.76915,1.52582 -2.33497,2.43497 -0.56583,0.90916 -0.85416,1.83081 -0.86499,2.76497 0.025,1.78497 0.79499,3.20495 2.30997,4.25994 1.51498,1.05498 3.62495,1.59497 6.32992,1.61998 z m -0.44,-18.27976 c -1.56832,-0.0292 -2.90163,-0.60082 -3.99994,-1.71498 -1.09833,-1.11414 -1.67165,-2.59579 -1.71998,-4.44494 0.0433,-1.91746 0.60665,-3.41244 1.68998,-4.48495 1.08331,-1.07246 2.42662,-1.61746 4.02994,-1.63498 1.62247,0.02 2.97745,0.57002 4.06495,1.64998 1.08747,1.08001 1.65246,2.56999 1.69498,4.46995 -0.0475,1.84915 -0.62251,3.3308 -1.72498,4.44494 -1.1025,1.11416 -2.44748,1.68582 -4.03495,1.71498 z m 0.52,16.99978 c -2.31248,-0.0217 -4.08746,-0.45834 -5.32493,-1.30999 -1.23749,-0.85166 -1.86248,-1.98831 -1.87498,-3.40995 -0.008,-0.79166 0.21833,-1.59832 0.67999,-2.41997 0.46166,-0.82166 1.20831,-1.58831 2.23997,-2.29997 0.59665,0.1375 1.13331,0.2325 1.60998,0.285 0.47665,0.0525 0.79332,0.0775 0.94999,0.075 l 4.79994,0 c 1.66413,-0.0117 2.92578,0.25167 3.78495,0.78999 0.85913,0.53833 1.2908,1.42165 1.29498,2.64997 -0.025,1.44248 -0.75501,2.72746 -2.18997,3.85495 -1.435,1.12748 -3.42497,1.72247 -5.96992,1.78498 z"
           style="line-height:100%;font-family:Source Han Sans CN;-inkscape-font-specification:Source Han Sans CN Ultra-Light"
           id="path3053" />
        <path
           d="m 150.32797,379.22833 c 1.53663,-0.0233 2.81328,-0.23667 3.82995,-0.64 1.01664,-0.40332 1.91329,-0.85665 2.68997,-1.35998 l -0.64,-1.23998 c -0.79167,0.58749 -1.65832,1.05249 -2.59996,1.39498 -0.94167,0.3425 -2.00832,0.51749 -3.19996,0.52499 -2.51164,-0.0542 -4.49828,-0.96582 -5.95992,-2.73496 -1.46166,-1.76914 -2.20831,-4.07077 -2.23997,-6.90491 l 15.4398,0 c 0.0383,-0.25999 0.0616,-0.50999 0.07,-0.74999 0.008,-0.23999 0.0116,-0.46998 0.01,-0.68999 -0.0267,-3.13495 -0.74335,-5.53491 -2.14998,-7.19991 -1.40666,-1.66496 -3.3433,-2.50495 -5.80992,-2.51997 -2.42581,0.0334 -4.52412,1.02667 -6.29492,2.97996 -1.77082,1.95333 -2.69914,4.66662 -2.78497,8.1399 0.0692,3.46829 1.01082,6.16159 2.82497,8.07989 1.81414,1.91831 4.08577,2.89163 6.81491,2.91997 z m -8.11989,-12.27985 c 0.27249,-2.68245 1.11748,-4.76742 2.53496,-6.25492 1.41748,-1.48746 3.09245,-2.24245 5.02494,-2.26497 2.00579,-0.002 3.5941,0.70252 4.76494,2.11498 1.1708,1.4125 1.76912,3.54747 1.79497,6.40491 z"
           style="line-height:100%;font-family:Source Han Sans CN;-inkscape-font-specification:Source Han Sans CN Ultra-Light"
           id="path3055" />
        <path
           d="m 171.42172,379.22833 c 1.53663,-0.0233 2.81328,-0.23667 3.82995,-0.64 1.01664,-0.40332 1.91329,-0.85665 2.68997,-1.35998 l -0.64,-1.23998 c -0.79167,0.58749 -1.65832,1.05249 -2.59996,1.39498 -0.94167,0.3425 -2.00832,0.51749 -3.19996,0.52499 -2.51164,-0.0542 -4.49828,-0.96582 -5.95992,-2.73496 -1.46166,-1.76914 -2.20831,-4.07077 -2.23997,-6.90491 l 15.4398,0 c 0.0383,-0.25999 0.0616,-0.50999 0.07,-0.74999 0.008,-0.23999 0.0116,-0.46998 0.01,-0.68999 -0.0267,-3.13495 -0.74335,-5.53491 -2.14998,-7.19991 -1.40666,-1.66496 -3.3433,-2.50495 -5.80992,-2.51997 -2.42581,0.0334 -4.52412,1.02667 -6.29492,2.97996 -1.77082,1.95333 -2.69914,4.66662 -2.78497,8.1399 0.0692,3.46829 1.01082,6.16159 2.82497,8.07989 1.81414,1.91831 4.08577,2.89163 6.81491,2.91997 z m -8.11989,-12.27985 c 0.27249,-2.68245 1.11748,-4.76742 2.53496,-6.25492 1.41748,-1.48746 3.09245,-2.24245 5.02494,-2.26497 2.00579,-0.002 3.5941,0.70252 4.76494,2.11498 1.1708,1.4125 1.76912,3.54747 1.79497,6.40491 z"
           style="line-height:100%;font-family:Source Han Sans CN;-inkscape-font-specification:Source Han Sans CN Ultra-Light"
           id="path3057" />
        <path
           d="m 184.71557,378.70833 1.43998,0 0,-5.79992 4.95994,-5.87993 7.2799,11.67985 1.55998,0 -7.99989,-12.75983 6.79991,-8.3199 -1.67998,0 -10.83986,13.31983 -0.08,0 0,-23.99969 -1.43998,0 z"
           style="line-height:100%;font-family:Source Han Sans CN;-inkscape-font-specification:Source Han Sans CN Ultra-Light"
           id="path3059" />
        <path
           d="m 209.59738,379.22833 c 2.22913,-0.0483 3.93077,-0.63166 5.10494,-1.74998 1.17413,-1.11832 1.76579,-2.48163 1.77497,-4.08995 -0.0817,-1.9908 -0.82833,-3.41911 -2.23997,-4.28494 -1.41166,-0.86582 -2.9983,-1.58414 -4.75994,-2.15498 -1.31415,-0.44748 -2.4758,-0.99247 -3.48495,-1.63497 -1.00916,-0.64248 -1.54082,-1.57747 -1.59498,-2.80497 -0.007,-1.07997 0.39749,-2.01995 1.21498,-2.81996 0.81749,-0.79997 2.09247,-1.21997 3.82495,-1.25999 1.08831,0.015 2.04163,0.20502 2.85997,0.57 0.81831,0.36501 1.57163,0.81501 2.25997,1.34998 l 0.83999,-1.07999 c -0.77834,-0.64997 -1.68166,-1.16996 -2.70997,-1.55998 -1.02833,-0.38997 -2.07165,-0.58997 -3.12996,-0.59999 -2.18414,0.0459 -3.83579,0.59418 -4.95493,1.64498 -1.11916,1.05084 -1.68082,2.32915 -1.68498,3.83495 0.0833,1.76999 0.81665,3.07997 2.19997,3.92995 1.38331,0.85 2.91662,1.53999 4.59994,2.06997 1.30497,0.41584 2.49496,0.99417 3.56995,1.73498 1.07498,0.74083 1.64497,1.78915 1.70998,3.14496 -0.002,1.23499 -0.44834,2.27497 -1.33998,3.11996 -0.89167,0.84499 -2.21832,1.28498 -3.97995,1.31998 -1.53999,-0.0183 -2.84997,-0.28166 -3.92995,-0.78999 -1.07999,-0.50832 -2.04998,-1.15165 -2.90996,-1.92997 l -0.91999,1.15998 c 0.94499,0.80249 2.06497,1.47748 3.35996,2.02498 1.29497,0.54749 2.73495,0.83249 4.31994,0.85499 z"
           style="line-height:100%;font-family:Source Han Sans CN;-inkscape-font-specification:Source Han Sans CN Ultra-Light"
           id="path3061" />
        <path
           d="m 133.99603,424.98825 c 1.4983,-8.4e-4 2.93161,-0.19917 4.29995,-0.59499 1.36829,-0.39583 2.68161,-0.98416 3.93995,-1.76498 l -0.67999,-1.11998 c -1.03418,0.64999 -2.16583,1.16998 -3.39496,1.55998 -1.22917,0.38999 -2.59082,0.58998 -4.08495,0.59999 -4.03579,-0.0475 -7.24408,-1.30249 -9.62487,-3.76495 -2.38081,-2.46247 -3.59913,-5.84742 -3.65496,-10.15487 0.0449,-3.5397 0.80838,-6.61126 2.29034,-9.2147 1.48195,-2.6034 3.41279,-4.62016 5.79252,-6.05029 2.37971,-1.43008 4.93869,-2.15501 7.67694,-2.17479 3.80326,0.04 6.79655,1.17001 8.97988,3.38996 2.18328,2.21999 3.2966,5.28995 3.33996,9.20988 -0.0892,3.19747 -0.80085,5.65244 -2.13497,7.36491 -1.33418,1.71248 -2.75583,2.57747 -4.26495,2.59496 -1.40333,0.004 -2.33666,-0.50415 -2.79996,-1.52498 -0.46335,-1.02081 -0.43668,-2.57912 0.08,-4.67494 l 1.51998,-8.11989 -1.19999,0 -0.35999,1.75997 -0.08,0 c -0.88668,-1.40663 -2.11333,-2.11328 -3.67995,-2.11997 -1.73777,0.044 -3.21331,0.58273 -4.42661,1.61628 -1.21333,1.03358 -2.13776,2.29825 -2.7733,3.79402 -0.63556,1.4958 -0.95555,2.95899 -0.95999,4.38958 0.0417,1.97914 0.53832,3.46079 1.48998,4.44494 0.95165,0.98416 2.1083,1.47582 3.46996,1.47498 1.01747,-0.0258 1.97246,-0.33416 2.86496,-0.92499 0.89247,-0.59082 1.73746,-1.30914 2.53497,-2.15497 l 0.08,0 c 0.0983,1.13582 0.52164,1.97414 1.26998,2.51497 0.7483,0.54083 1.71162,0.80916 2.88997,0.80499 1.86828,-0.0108 3.62159,-0.97915 5.25993,-2.90497 1.63828,-1.9258 2.5116,-4.74409 2.61996,-8.45489 -0.0442,-4.19576 -1.26585,-7.52405 -3.66495,-9.98487 -2.39916,-2.46078 -5.71078,-3.71909 -9.93487,-3.77495 -3.07134,0.021 -5.90636,0.80125 -8.50508,2.34071 -2.59874,1.53951 -4.69303,3.71232 -6.28288,6.51844 -1.58986,2.80615 -2.40713,6.11968 -2.45182,9.94061 0.0792,4.79661 1.45081,8.51322 4.11495,11.14985 2.66412,2.63663 6.14574,3.97328 10.44486,4.00995 z m -1.07998,-10.35986 c -1.0475,0.0208 -1.92249,-0.33083 -2.62497,-1.05499 -0.7025,-0.72415 -1.0675,-1.9458 -1.09499,-3.66495 0.0217,-2.04747 0.61832,-3.93244 1.78998,-5.65493 1.17164,-1.72246 2.78828,-2.63745 4.84994,-2.74497 0.7033,-0.0141 1.31663,0.14419 1.83998,0.475 0.5233,0.33084 1.05663,0.91917 1.59998,1.76498 l -1.39999,7.7999 c -0.92167,1.05582 -1.79833,1.83414 -2.62996,2.33496 -0.83168,0.50084 -1.60833,0.74917 -2.32997,0.745 z"
           style="line-height:100%;font-family:Source Han Sans CN;-inkscape-font-specification:Source Han Sans CN Ultra-Light"
           id="path3063" />
        <path
           d="m 154.54685,402.42854 0,1.31999 36.19953,0 0,-1.31999 z"
           style="line-height:100%;font-family:Source Han Sans CN;-inkscape-font-specification:Source Han Sans CN Ultra-Light"
           id="path3065" />
        <path
           d="m 213.02661,406.70849 0,-12.67984 13.95982,0 0,12.67984 z m -15.1198,0 0,-12.67984 13.95982,0 0,12.67984 z m 15.1198,-13.83982 0,-7.35991 -1.15998,0 0,7.35991 -15.11981,0 0,17.75977 1.15999,0 0,-2.75997 13.95982,0 0,13.59983 1.15998,0 0,-13.59983 13.95982,0 0,2.55997 1.15999,0 0,-17.55977 z"
           style="line-height:100%;font-family:Source Han Sans CN;-inkscape-font-specification:Source Han Sans CN Ultra-Light"
           id="path3067" />
      </g>
      <g
         inkscape:export-ydpi="300"
         inkscape:export-xdpi="300"
         inkscape:export-filename="C:\Users\lmy441900\geeks@no1.png"
         transform="matrix(4.4214675,-1.2329331,1.2329331,4.4214675,-8.803471,483.6692)"
         id="g3110">
        <g
           id="layer2"
           style="display:none">
          <path
             style="opacity:0.9;fill:url(#ButtonShadow);fill-opacity:1;fill-rule:nonzero;stroke:none;filter:url(#filter3174)"
             d="m 11,7 74,0 c 3.324,0 6,2.676 6,6 l 0,73 c 0,3.324 -2.676,6 -6,6 L 11,92 C 7.676,92 5,89.324 5,86 L 5,13 C 5,9.676 7.676,7 11,7 z"
             id="rect3745" />
        </g>
        <g
           id="layer4"
           style="display:inline">
          <path
             inkscape:connector-curvature="0"
             d="m 12,-95.03125 c -5.5110903,0 -10.03125,4.52016 -10.03125,10.03125 l 0,71 c 0,5.5110902 4.5201598,10.03125 10.03125,10.03125 l 72,0 c 5.51109,0 10.03125,-4.5201597 10.03125,-10.03125 l 0,-71 c 0,-5.51109 -4.52016,-10.03125 -10.03125,-10.03125 l -72,0 z"
             transform="scale(1,-1)"
             id="path3786"
             style="opacity:0.07999998;fill:url(#linearGradient3224-3);fill-opacity:1;fill-rule:nonzero;stroke:none;display:inline" />
          <path
             inkscape:connector-curvature="0"
             d="m 12,-94.03125 c -4.971633,0 -9.03125,4.059617 -9.03125,9.03125 l 0,71 c 0,4.9716329 4.0596171,9.03125 9.03125,9.03125 l 72,0 c 4.971633,0 9.03125,-4.059617 9.03125,-9.03125 l 0,-71 c 0,-4.971633 -4.059617,-9.03125 -9.03125,-9.03125 l -72,0 z"
             transform="scale(1,-1)"
             id="path3778"
             style="opacity:0.1;fill:url(#linearGradient3780);fill-opacity:1;fill-rule:nonzero;stroke:none;display:inline" />
          <path
             inkscape:connector-curvature="0"
             d="m 12,-93 c -4.4091333,0 -8,3.590867 -8,8 l 0,71 c 0,4.4091333 3.5908667,8 8,8 l 72,0 c 4.409133,0 8,-3.5908667 8,-8 l 0,-71 c 0,-4.409133 -3.590867,-8 -8,-8 l -72,0 z"
             transform="scale(1,-1)"
             id="path3770"
             style="opacity:0.2;fill:url(#linearGradient3772);fill-opacity:1;fill-rule:nonzero;stroke:none;display:inline" />
          <path
             transform="scale(1,-1)"
             style="opacity:0.3;fill:url(#linearGradient3725);fill-opacity:1;fill-rule:nonzero;stroke:none;display:inline"
             d="m 12,-92 72,0 c 3.878,0 7,3.122 7,7 l 0,71 c 0,3.878 -3.122,7 -7,7 l -72,0 c -3.878,0 -7,-3.122 -7,-7 l 0,-71 c 0,-3.878 3.122,-7 7,-7 z"
             id="rect3723" />
          <path
             transform="scale(1,-1)"
             style="opacity:0.45;fill:url(#linearGradient3721);fill-opacity:1;fill-rule:nonzero;stroke:none;display:inline"
             d="m 12,-91 72,0 c 3.324,0 6,2.676 6,6 l 0,72 c 0,3.324 -2.676,6 -6,6 L 12,-7 C 8.676,-7 6,-9.676 6,-13 l 0,-72 c 0,-3.324 2.676,-6 6,-6 z"
             id="rect3716" />
        </g>
        <g
           id="layer3">
          <path
             style="fill:url(#radialGradient3205);fill-opacity:1;stroke:none"
             d="m 13.993648,8.2544327 66.209428,0 c 3.242433,0 5.852767,2.7532863 5.852767,6.1732873 l 0,66.169921 c 0,3.42 -2.610334,6.173286 -5.852767,6.173286 l -66.209428,0 c -3.242433,0 -5.8527674,-2.753286 -5.8527674,-6.173286 l 0,-66.169921 c 0,-3.420001 2.6103344,-6.1732873 5.8527674,-6.1732873 z"
             id="rect3461" />
          <path
             d="m 14,8.25 c -3.242433,0 -5.84375,2.7675 -5.84375,6.1875 l 0,49.0625 C 26.980304,49.641102 53.967914,39.706343 86.0625,41.71875 l 0,-27.28125 c 0,-3.420001 -2.63257,-6.1875 -5.875,-6.1875 L 14,8.25 z"
             inkscape:connector-curvature="0"
             id="rect3256"
             style="opacity:0.07999998;fill:#d9c6ed;fill-opacity:1;stroke:none" />
          <path
             d="m 24,24 0,4.002171 8.011647,3.093117 L 24,34.127758 24,38 35.946726,33.083525 36,29.24142 24,24 z"
             inkscape:connector-curvature="0"
             id="path3213"
             style="font-size:48px;font-style:normal;font-variant:normal;font-weight:bold;font-stretch:normal;text-align:start;line-height:125%;writing-mode:lr-tb;text-anchor:start;fill:#ffffff;fill-opacity:1;stroke:none;display:inline;font-family:MgOpen Canonica;-inkscape-font-specification:MgOpen Canonica Bold" />
          <path
             d="m 36,38 0,4 12,0 0,-4 -12,0 z"
             inkscape:connector-curvature="0"
             id="path3557"
             style="font-size:48px;font-style:normal;font-variant:normal;font-weight:bold;font-stretch:normal;text-align:start;line-height:125%;writing-mode:lr-tb;text-anchor:start;fill:#ffffff;fill-opacity:1;stroke:none;display:inline;font-family:MgOpen Canonica;-inkscape-font-specification:MgOpen Canonica Bold" />
          <path
             d="m 19,13 c -3.289406,0 -6,2.710594 -6,6 l 0,58 c 0,3.289406 2.710594,6 6,6 l 58,0 c 3.289406,0 6,-2.710594 6,-6 l 0,-58 c 0,-3.289406 -2.710594,-6 -6,-6 l -58,0 z m 0,4 58,0 c 1.142594,0 2,0.857406 2,2 l 0,58 c 0,1.142594 -0.857406,2 -2,2 l -58,0 c -1.142594,0 -2,-0.857406 -2,-2 l 0,-58 c 0,-1.142594 0.857406,-2 2,-2 z"
             inkscape:connector-curvature="0"
             id="rect3222-3"
             style="font-size:medium;font-style:normal;font-variant:normal;font-weight:normal;font-stretch:normal;text-indent:0;text-align:start;text-decoration:none;line-height:normal;letter-spacing:normal;word-spacing:normal;text-transform:none;direction:ltr;block-progression:tb;writing-mode:lr-tb;text-anchor:start;opacity:0.15;color:#000000;fill:#000000;fill-opacity:1;stroke:none;stroke-width:4;marker:none;visibility:visible;display:inline;overflow:visible;enable-background:accumulate;font-family:Abandoned Bitplane;-inkscape-font-specification:Abandoned Bitplane" />
          <path
             d="m 17,14 c -1.662,0 -3,1.338 -3,3 l 0,62 c 0,1.662 1.338,3 3,3 l 62,0 c 1.662,0 3,-1.338 3,-3 l 0,-62 c 0,-1.662 -1.338,-3 -3,-3 l -62,0 z m 0,1.9375 62,0 c 0.618163,0 1.0625,0.444337 1.0625,1.0625 l 0,62 c 0,0.618163 -0.444337,1.0625 -1.0625,1.0625 l -62,0 c -0.618163,0 -1.0625,-0.444337 -1.0625,-1.0625 l 0,-62 c 0,-0.618163 0.444337,-1.0625 1.0625,-1.0625 z"
             inkscape:connector-curvature="0"
             id="rect3981"
             style="opacity:0.3;color:#000000;fill:#000000;fill-opacity:1;fill-rule:nonzero;stroke:none;stroke-width:1;marker:none;visibility:visible;display:inline;overflow:visible;enable-background:accumulate" />
          <path
             d="m 17,14 c -1.662,0 -3,1.338 -3,3 l 0,62 c 0,1.662 1.338,3 3,3 l 62,0 c 1.662,0 3,-1.338 3,-3 l 0,-62 c 0,-1.662 -1.338,-3 -3,-3 l -62,0 z m 0,0.96875 62,0 c 1.140081,0 2.03125,0.891169 2.03125,2.03125 l 0,62 c 0,1.140081 -0.891169,2.03125 -2.03125,2.03125 l -62,0 c -1.140081,0 -2.03125,-0.891169 -2.03125,-2.03125 l 0,-62 c 0,-1.140081 0.891169,-2.03125 2.03125,-2.03125 z"
             inkscape:connector-curvature="0"
             id="rect3977"
             style="opacity:0.6;color:#000000;fill:#000000;fill-opacity:1;fill-rule:nonzero;stroke:none;stroke-width:1;marker:none;visibility:visible;display:inline;overflow:visible;enable-background:accumulate" />
        </g>
        <g
           id="layer1-1"
           style="display:inline">
          <path
             d="M 12,6 C 8.676,6 6,8.676 6,12 l 0,72 c 0,3.324 2.676,6 6,6 l 72,0 c 3.324,0 6,-2.676 6,-6 L 90,12 C 90,8.676 87.324,6 84,6 L 12,6 z m 5,7 62,0 c 2.216001,0 4,1.784 4,4 l 0,62 c 10e-7,2.216001 -1.784,4 -4,4 l -62,0 c -2.215999,10e-7 -4,-1.784 -4,-4 l 0,-62 c 0,-2.215999 1.784,-4 4,-4 z"
             inkscape:connector-curvature="0"
             id="rect2419"
             style="fill:url(#linearGradient3427);fill-opacity:1;fill-rule:nonzero;stroke:none" />
          <path
             d="M 12,6 C 8.676,6 6,8.676 6,12 l 0,2 0,68 0,2 c 0,0.334721 0.04135,0.6507 0.09375,0.96875 0.0487,0.295596 0.09704,0.596915 0.1875,0.875 0.00988,0.03038 0.020892,0.0636 0.03125,0.09375 0.098865,0.287771 0.2348802,0.547452 0.375,0.8125 0.1445918,0.273507 0.3156161,0.535615 0.5,0.78125 0.1843839,0.245635 0.3737765,0.473472 0.59375,0.6875 0.439947,0.428056 0.94291,0.814526 1.5,1.09375 0.278545,0.139612 0.5734731,0.246947 0.875,0.34375 -0.2562018,-0.100222 -0.4867109,-0.236272 -0.71875,-0.375 -0.00741,-0.0044 -0.023866,0.0045 -0.03125,0 -0.031933,-0.0193 -0.062293,-0.04251 -0.09375,-0.0625 -0.120395,-0.0767 -0.2310226,-0.163513 -0.34375,-0.25 -0.1061728,-0.0808 -0.2132809,-0.161112 -0.3125,-0.25 C 8.4783201,88.557317 8.3087904,88.373362 8.15625,88.1875 8.0486711,88.057245 7.9378561,87.922215 7.84375,87.78125 7.818661,87.74287 7.805304,87.69538 7.78125,87.65625 7.716487,87.553218 7.6510225,87.451733 7.59375,87.34375 7.4927417,87.149044 7.3880752,86.928049 7.3125,86.71875 7.30454,86.69694 7.288911,86.6782 7.28125,86.65625 7.2494249,86.5643 7.2454455,86.469419 7.21875,86.375 7.1884177,86.268382 7.1483606,86.171969 7.125,86.0625 7.0521214,85.720988 7,85.364295 7,85 L 7,83 7,15 7,13 C 7,10.218152 9.2181517,8 12,8 l 2,0 68,0 2,0 c 2.781848,0 5,2.218152 5,5 l 0,2 0,68 0,2 c 0,0.364295 -0.05212,0.720988 -0.125,1.0625 -0.04415,0.206893 -0.08838,0.397658 -0.15625,0.59375 -0.0077,0.02195 -0.0233,0.04069 -0.03125,0.0625 -0.06274,0.173739 -0.138383,0.367449 -0.21875,0.53125 -0.04158,0.0828 -0.07904,0.169954 -0.125,0.25 -0.0546,0.09721 -0.126774,0.18835 -0.1875,0.28125 -0.09411,0.140965 -0.204921,0.275995 -0.3125,0.40625 -0.143174,0.17445 -0.303141,0.346998 -0.46875,0.5 -0.01117,0.0102 -0.01998,0.02115 -0.03125,0.03125 -0.138386,0.125556 -0.285091,0.234436 -0.4375,0.34375 -0.102571,0.07315 -0.204318,0.153364 -0.3125,0.21875 -0.0074,0.0045 -0.02384,-0.0044 -0.03125,0 -0.232039,0.138728 -0.462548,0.274778 -0.71875,0.375 0.301527,-0.0968 0.596455,-0.204138 0.875,-0.34375 0.55709,-0.279224 1.060053,-0.665694 1.5,-1.09375 0.219973,-0.214028 0.409366,-0.441865 0.59375,-0.6875 0.184384,-0.245635 0.355408,-0.507743 0.5,-0.78125 0.14012,-0.265048 0.276135,-0.524729 0.375,-0.8125 0.01041,-0.03078 0.02133,-0.06274 0.03125,-0.09375 0.09046,-0.278085 0.1388,-0.579404 0.1875,-0.875 C 89.95865,84.6507 90,84.334721 90,84 l 0,-2 0,-68 0,-2 C 90,8.676 87.324,6 84,6 L 12,6 z"
             inkscape:connector-curvature="0"
             id="rect3728"
             style="opacity:0.5;fill:url(#linearGradient3188);fill-opacity:1;fill-rule:nonzero;stroke:none" />
          <path
             d="m 17,12 c -2.752703,0 -5,2.247297 -5,5 l 0,62 c 0,2.752703 2.247298,5 5,5 l 62,0 c 2.752703,0 5.000001,-2.247297 5,-5 l 0,-62 c 0,-2.752703 -2.247297,-5 -5,-5 l -62,0 z m 0,2 62,0 c 1.679298,0 3,1.320703 3,3 l 0,62 c 10e-7,1.679297 -1.320703,3 -3,3 l -62,0 c -1.679296,0 -3,-1.320703 -3,-3 l 0,-62 c 0,-1.679297 1.320703,-3 3,-3 z"
             inkscape:connector-curvature="0"
             id="rect3425"
             style="fill:url(#linearGradient3279);fill-opacity:1;fill-rule:nonzero;stroke:none" />
          <path
             d="M 12,90 C 8.676,90 6,87.324 6,84 L 6,82 6,14 6,12 c 0,-0.334721 0.04135,-0.6507 0.09375,-0.96875 0.0487,-0.295596 0.09704,-0.596915 0.1875,-0.875 C 6.29113,10.12587 6.302142,10.09265 6.3125,10.0625 6.411365,9.774729 6.5473802,9.515048 6.6875,9.25 6.8320918,8.976493 7.0031161,8.714385 7.1875,8.46875 7.3718839,8.223115 7.5612765,7.995278 7.78125,7.78125 8.221197,7.353194 8.72416,6.966724 9.28125,6.6875 9.559795,6.547888 9.8547231,6.440553 10.15625,6.34375 9.9000482,6.443972 9.6695391,6.580022 9.4375,6.71875 c -0.00741,0.0044 -0.023866,-0.0045 -0.03125,0 -0.031933,0.0193 -0.062293,0.04251 -0.09375,0.0625 -0.120395,0.0767 -0.2310226,0.163513 -0.34375,0.25 -0.1061728,0.0808 -0.2132809,0.161112 -0.3125,0.25 C 8.4783201,7.442683 8.3087904,7.626638 8.15625,7.8125 8.0486711,7.942755 7.9378561,8.077785 7.84375,8.21875 7.818661,8.25713 7.805304,8.30462 7.78125,8.34375 7.716487,8.446782 7.6510225,8.548267 7.59375,8.65625 7.4927417,8.850956 7.3880752,9.071951 7.3125,9.28125 7.30454,9.30306 7.288911,9.3218 7.28125,9.34375 7.2494249,9.4357 7.2454455,9.530581 7.21875,9.625 7.1884177,9.731618 7.1483606,9.828031 7.125,9.9375 7.0521214,10.279012 7,10.635705 7,11 l 0,2 0,68 0,2 c 0,2.781848 2.2181517,5 5,5 l 2,0 68,0 2,0 c 2.781848,0 5,-2.218152 5,-5 l 0,-2 0,-68 0,-2 C 89,10.635705 88.94788,10.279012 88.875,9.9375 88.83085,9.730607 88.78662,9.539842 88.71875,9.34375 88.71105,9.3218 88.69545,9.30306 88.6875,9.28125 88.62476,9.107511 88.549117,8.913801 88.46875,8.75 88.42717,8.6672 88.38971,8.580046 88.34375,8.5 88.28915,8.40279 88.216976,8.31165 88.15625,8.21875 88.06214,8.077785 87.951329,7.942755 87.84375,7.8125 87.700576,7.63805 87.540609,7.465502 87.375,7.3125 87.36383,7.3023 87.35502,7.29135 87.34375,7.28125 87.205364,7.155694 87.058659,7.046814 86.90625,6.9375 86.803679,6.86435 86.701932,6.784136 86.59375,6.71875 c -0.0074,-0.0045 -0.02384,0.0044 -0.03125,0 -0.232039,-0.138728 -0.462548,-0.274778 -0.71875,-0.375 0.301527,0.0968 0.596455,0.204138 0.875,0.34375 0.55709,0.279224 1.060053,0.665694 1.5,1.09375 0.219973,0.214028 0.409366,0.441865 0.59375,0.6875 0.184384,0.245635 0.355408,0.507743 0.5,0.78125 0.14012,0.265048 0.276135,0.524729 0.375,0.8125 0.01041,0.03078 0.02133,0.06274 0.03125,0.09375 0.09046,0.278085 0.1388,0.579404 0.1875,0.875 C 89.95865,11.3493 90,11.665279 90,12 l 0,2 0,68 0,2 c 0,3.324 -2.676,6 -6,6 l -72,0 z"
             inkscape:connector-curvature="0"
             id="path3615"
             style="opacity:0.4;fill:url(#radialGradient2874);fill-opacity:1;fill-rule:nonzero;stroke:none" />
          <path
             style="opacity:0.1;fill:url(#linearGradient2908);fill-opacity:1;fill-rule:nonzero;stroke:#ffffff;stroke-width:0.5;stroke-linecap:round;stroke-linejoin:miter;stroke-miterlimit:4;stroke-dashoffset:0;stroke-opacity:1;filter:url(#filter3794)"
             clip-path="url(#clipPath3613)"
             d="m 25.151084,12.707066 43.848938,0 c 6.648,0 12,5.352 12,12 l 0,44.292968 c 0,6.648 -5.352,12 -12,12 l -43.848938,0 c -6.648,0 -12,-5.352 -12,-12 l 0,-44.292968 c 0,-6.648 5.352,-12 12,-12 z"
             id="rect3171" />
        </g>
      </g>
    </g>
  </g>
</svg>
